General
Complete name                            : Disc 1 - Bobby Parker.mkv
Format                                   : Matroska
Format version                           : Version 2
File size                                : 1.14 GiB
Duration                                 : 1h 10mn
Overall bit rate                         : 2 313 Kbps

Video
ID                                       : 1
Format                                   : AVC
Format/Info                              : Advanced Video Codec
Format profile                           : Main@L3.1
Format settings, CABAC                   : Yes
Format settings, ReFrames                : 2 frames
Codec ID                                 : avc1
Codec ID/Info                            : Advanced Video Coding
Duration                                 : 1h 10mn
Bit rate mode                            : Variable
Bit rate                                 : 1 562 Kbps
Maximum bit rate                         : 3 180 Kbps
Width                                    : 720 pixels
Height                                   : 484 pixels
Display aspect ratio                     : 3:2
Original display aspect ratio            : 16:9
Frame rate mode                          : Constant
Frame rate                               : 29.970 fps
Standard                                 : NTSC
Color space                              : YUV
Chroma subsampling                       : 4:2:0
Bit depth                                : 8 bits
Scan type                                : Progressive
Bits/(Pixel*Frame)                       : 0.150
Stream size                              : 789 MiB (100%)

Audio
Format                                   : DTS
Format/Info                              : Digital Theater Systems
Duration                                 : 1h 10mn
Bit rate mode                            : Constant
Bit rate                                 : 755 Kbps
Channel(s)                               : 6 channels
Channel positions                        : Front: L C R, Side: L R, LFE
Sampling rate                            : 48.0 KHz
Bit depth                                : 24 bits
Compression mode                         : Lossy
Stream size                              : 378 MiB (100%)

Menu
00:00:00.000                             : 1. Straight Up No Chaser
00:06:49.367                             : 2. Break It Up
00:10:16.233                             : 3. Breaking Up Somebody's Home
00:15:31.467                             : 4. Nothing But the Blues
00:21:07.733                             : 5. So Glad I Found You
00:29:49.433                             : 6. I Ain't Superstitious
00:35:29.467                             : 7. It's Unfair
00:41:55.300                             : 8. Going Down Slow
00:49:39.733                             : 9. Chill Out (feat Carlos Santana)
00:56:57.833                             : 10. Mellow Down Easy (feat Carlos Sa...)
01:02:23.300                             : 11. Watch Your Step (feat Carlos San...)
01:09:55.233                             : 12. Credits

-----------------------------------------
General
Complete name                            : Disc 2 - Clarence Gatemouth Brown.mkv
Format                                   : Matroska
Format version                           : Version 2
File size                                : 1.15 GiB
Duration                                 : 1h 10mn
Overall bit rate                         : 2 311 Kbps

Video
ID                                       : 1
Format                                   : AVC
Format/Info                              : Advanced Video Codec
Format profile                           : Main@L3.1
Format settings, CABAC                   : Yes
Format settings, ReFrames                : 2 frames
Format settings, GOP                     : M=1, N=3
Codec ID                                 : avc1
Codec ID/Info                            : Advanced Video Coding
Duration                                 : 1h 10mn
Bit rate mode                            : Variable
Bit rate                                 : 1 558 Kbps
Maximum bit rate                         : 3 620 Kbps
Width                                    : 720 pixels
Height                                   : 484 pixels
Display aspect ratio                     : 3:2
Original display aspect ratio            : 16:9
Frame rate mode                          : Constant
Frame rate                               : 29.970 fps
Standard                                 : NTSC
Color space                              : YUV
Chroma subsampling                       : 4:2:0
Bit depth                                : 8 bits
Scan type                                : Progressive
Bits/(Pixel*Frame)                       : 0.149
Stream size                              : 791 MiB (100%)

Audio
Format                                   : DTS
Format/Info                              : Digital Theater Systems
Duration                                 : 1h 10mn
Bit rate mode                            : Constant
Bit rate                                 : 755 Kbps
Channel(s)                               : 6 channels
Channel positions                        : Front: L C R, Side: L R, LFE
Sampling rate                            : 48.0 KHz
Bit depth                                : 24 bits
Compression mode                         : Lossy
Stream size                              : 381 MiB

Menu
00:00:00.000                             : 1. Bits and Pieces
00:06:34.700                             : 2. Strange Things Happen
00:13:46.800                             : 3. I'm Beginning to See the Light
00:17:17.733                             : 4. Sunrise Cajun Style
00:22:50.333                             : 5. Honey Boy
00:27:13.033                             : 6. Further On Up the Road
00:31:33.800                             : 7. I've Got My Mojo Working (feat Ca...)
00:39:09.167                             : 8. Drifter (feat Carlos Santana)
00:54:45.967                             : 9. Grape Jelly (feat Carlos Santana)
01:02:33.733                             : 10. Okie Dokie Stomp (feat Carlos Sa...)
01:10:10.833                             : 11. Credits

-----------------------------------------
General
Complete name                            : Disc 3 - Buddy Guy.mkv
Format                                   : Matroska
Format version                           : Version 2
File size                                : 1.56 GiB
Duration                                 : 1h 36mn
Overall bit rate                         : 2 311 Kbps

Video
ID                                       : 1
Format                                   : AVC
Format/Info                              : Advanced Video Codec
Format profile                           : Main@L3.1
Format settings, CABAC                   : Yes
Format settings, ReFrames                : 2 frames
Codec ID                                 : avc1
Codec ID/Info                            : Advanced Video Coding
Duration                                 : 1h 36mn
Bit rate mode                            : Variable
Bit rate                                 : 1 558 Kbps
Maximum bit rate                         : 4 377 Kbps
Width                                    : 720 pixels
Height                                   : 484 pixels
Display aspect ratio                     : 3:2
Original display aspect ratio            : 16:9
Frame rate mode                          : Constant
Frame rate                               : 29.970 fps
Standard                                 : NTSC
Color space                              : YUV
Chroma subsampling                       : 4:2:0
Bit depth                                : 8 bits
Scan type                                : Progressive
Bits/(Pixel*Frame)                       : 0.149
Stream size                              : 1.05 GiB (100%)

Audio
Format                                   : DTS
Format/Info                              : Digital Theater Systems
Duration                                 : 1h 36mn
Bit rate mode                            : Constant
Bit rate                                 : 755 Kbps
Channel(s)                               : 6 channels
Channel positions                        : Front: L C R, Side: L R, LFE
Sampling rate                            : 48.0 KHz
Bit depth                                : 24 bits
Compression mode                         : Lossy
Stream size                              : 520 MiB (100%)

Menu
00:00:00.000                             : 1. Good Morning Little Schoolgirl
00:04:56.200                             : 2. Louise McGhee
00:08:17.700                             : 3. Done Got Old
00:12:32.400                             : 4. Hoochie Coochie Man
00:35:28.267                             : 5. Fever
00:44:08.767                             : 6. Drowning on Dry Land
01:01:45.100                             : 7. Stormy Monday (feat Carlos Santana)
01:09:58.867                             : 8. Jam Session 1 (feat Carlos Santan...)
01:21:48.000                             : 9. So Many Roads So Many Trains (fea...)
01:26:16.733                             : 10. Jam Session 2 (feat Carlos Santa...)
01:36:05.500                             : 11. Credits